<?xml version="1.0" standalone="no"?>
<!DOCTYPE svg PUBLIC "-//W3C//DTD SVG 1.1//EN" "http://www.w3.org/Graphics/SVG/1.1/DTD/svg11.dtd" >
<svg xmlns="http://www.w3.org/2000/svg">
<metadata></metadata>
<defs>
<font id="ProximaNovaRgRegular" horiz-adv-x="800" >
<font-face units-per-em="1400" ascent="1106" descent="-294" />
<missing-glyph horiz-adv-x="362" />
<glyph unicode="&#xfb01;" horiz-adv-x="712" d="M22 584v92h112v52q0 103 53.5 161.5t142.5 58.5q61 0 104 -23l-27 -79q-25 15 -60 15q-108 0 -108 -133v-52h138v-92h-138v-584h-105v584h-112zM484 843q0 29 21.5 50t50.5 21t49.5 -21t20.5 -50t-20.5 -49.5t-49.5 -20.5t-50.5 20.5t-21.5 49.5zM503 0v676h105v-676 h-105z" />
<glyph unicode="&#xfb02;" horiz-adv-x="712" d="M22 584v92h112v52q0 103 53.5 161.5t142.5 58.5q61 0 104 -23l-27 -79q-25 15 -60 15q-108 0 -108 -133v-52h138v-92h-138v-584h-105v584h-112zM503 0v934h105v-934h-105z" />
<glyph unicode="&#xfb03;" horiz-adv-x="1108" d="M22 584v92h112v52q0 103 53 161.5t143 58.5q87 0 143 -52l-43 -67q-35 32 -83 32q-108 0 -108 -133v-52h138v-92h-138v-584h-105v584h-112zM420 584v92h112v52q0 103 53.5 161.5t142.5 58.5q61 0 104 -23l-27 -79q-26 15 -60 15q-108 0 -108 -133v-52h137v-92h-137v-584 h-105v584h-112zM881 843q0 29 21 50t50 21t49.5 -21t20.5 -50t-20.5 -49.5t-49.5 -20.5t-50 20.5t-21 49.5zM899 0v676h105v-676h-105z" />
<glyph unicode="&#xfb04;" horiz-adv-x="1108" d="M22 584v92h112v52q0 103 53 161.5t143 58.5q87 0 143 -52l-43 -67q-35 32 -83 32q-108 0 -108 -133v-52h138v-92h-138v-584h-105v584h-112zM420 584v92h112v52q0 103 53.5 161.5t142.5 58.5q61 0 104 -23l-27 -79q-26 15 -60 15q-108 0 -108 -133v-52h137v-92h-137v-584 h-105v584h-112zM899 0v934h105v-934h-105z" />
<glyph horiz-adv-x="0" />
<glyph horiz-adv-x="1400" />
<glyph unicode=" "  horiz-adv-x="362" />
<glyph unicode="&#x09;" horiz-adv-x="362" />
<glyph unicode="&#xa0;" horiz-adv-x="362" />
<glyph unicode="!" horiz-adv-x="322" d="M84 63q0 31 23 54t54 23t54 -23t23 -54t-23 -54t-54 -23t-54 23t-23 54zM95 934h132l-23 -672h-86z" />
<glyph unicode="&#x22;" horiz-adv-x="481" d="M76 883q0 26 18.5 45.5t44.5 19.5q27 0 45.5 -19t18.5 -46l-38 -306h-52q-37 286 -37 306zM279 883q0 27 18.5 46t45.5 19q26 0 44.5 -19.5t18.5 -45.5l-38 -306h-52q-37 286 -37 306z" />
<glyph unicode="#" horiz-adv-x="827" d="M31 253l24 75h149l93 278h-151l22 73h154l84 255h87l-84 -255h154l84 255h85l-85 -255h150l-21 -73h-153l-94 -278h156l-23 -75h-158l-84 -253h-85l85 253h-155l-84 -253h-87l85 253h-148zM290 328h154l94 278h-154z" />
<glyph unicode="$" horiz-adv-x="830" d="M60 132l70 89q95 -113 249 -131v340q-53 14 -86.5 25.5t-76 33t-67 46.5t-42 64.5t-17.5 89.5q0 107 81 178t208 81v127h86v-129q167 -14 277 -128l-70 -86q-82 90 -207 108v-305q53 -15 87.5 -27t78.5 -35.5t69.5 -50t44 -69t18.5 -95.5q0 -49 -16.5 -94t-50.5 -84 t-93.5 -64.5t-137.5 -30.5v-125h-86v125q-200 11 -319 147zM210 696q0 -53 43.5 -84t125.5 -55v286q-75 -5 -122 -46t-47 -101zM465 88q92 10 135 56.5t43 104.5q0 33 -13.5 58.5t-39.5 44t-55 31t-70 24.5v-319z" />
<glyph unicode="%" horiz-adv-x="1024" d="M43 715q0 100 63.5 166.5t162.5 66.5q100 0 162.5 -66t62.5 -167q0 -98 -63 -163t-162 -65t-162.5 65t-63.5 163zM127 715q0 -67 40 -111.5t102 -44.5t101.5 44.5t39.5 111.5q0 70 -39.5 115.5t-101.5 45.5t-102 -46t-40 -115zM179 0l597 934h78l-598 -934h-77zM531 213 q0 99 63 165t162 66t161.5 -66t62.5 -165t-62.5 -164.5t-161.5 -65.5t-162 65.5t-63 164.5zM613 213q0 -68 40 -113t103 -45q62 0 101.5 45t39.5 113q0 69 -39.5 114t-101.5 45q-63 0 -103 -45t-40 -114z" />
<glyph unicode="&#x26;" horiz-adv-x="898" d="M52 244q0 99 54 162t152 116q-72 122 -72 210q0 92 67.5 154t167.5 62q93 0 151.5 -49t58.5 -135q0 -29 -7.5 -55.5t-18 -46.5t-31.5 -41t-36.5 -34t-46 -31.5t-47 -27.5t-51.5 -27q47 -62 110 -133q48 -57 110 -124q63 96 101 214l90 -41q-63 -151 -128 -241 q94 -95 182 -176h-145q-35 30 -103 98q-115 -115 -268 -115q-126 0 -208 68.5t-82 192.5zM164 251q0 -83 55.5 -132t133.5 -49q105 0 194 92q-75 80 -128 142q-76 88 -117 148q-67 -41 -102.5 -87.5t-35.5 -113.5zM294 729q0 -65 56 -161q44 22 71.5 38.5t56.5 40t43 51.5 t14 62q0 50 -31 78.5t-80 28.5q-54 0 -92 -39t-38 -99z" />
<glyph unicode="'" horiz-adv-x="278" d="M76 883q0 26 18.5 45.5t44.5 19.5q27 0 45.5 -19t18.5 -46l-38 -306h-52q-37 286 -37 306z" />
<glyph unicode="(" horiz-adv-x="347" d="M62 340q0 168 51 328t146 291l64 -48q-75 -146 -111 -276t-36 -295q0 -164 36.5 -295t110.5 -275l-64 -49q-95 131 -146 291t-51 328z" />
<glyph unicode=")" horiz-adv-x="347" d="M24 -230l64 -49q95 131 146.5 291t51.5 328t-51.5 328t-146.5 291l-64 -48q75 -146 111 -276t36 -295q0 -164 -36.5 -295t-110.5 -275z" />
<glyph unicode="*" horiz-adv-x="475" d="M48 673l142 73l-142 73l30 56l136 -88l-8 161h64l-8 -161l134 88l32 -56l-142 -73l142 -73l-32 -54l-134 87l8 -161h-64l8 161l-136 -87z" />
<glyph unicode="+" horiz-adv-x="698" d="M41 435v73h268v290h80v-290h269v-73h-269v-298h-80v298h-268z" />
<glyph unicode="," horiz-adv-x="322" d="M80 -134q34 22 60.5 59t30.5 71q-9 -3 -20 -3q-29 0 -48 20t-19 51t21.5 53.5t52.5 22.5q37 0 62.5 -28.5t25.5 -77.5q0 -62 -31.5 -119t-81.5 -93z" />
<glyph unicode="-" horiz-adv-x="420" d="M42 293v92h336v-92h-336z" />
<glyph unicode="." horiz-adv-x="323" d="M84 63q0 31 23 54t54 23t54 -23t23 -54t-23 -54t-54 -23t-54 23t-23 54z" />
<glyph unicode="/" horiz-adv-x="414" d="M0 -28l332 990h82l-331 -990h-83z" />
<glyph unicode="0" horiz-adv-x="856" d="M71 466q0 89 20.5 172t61.5 154t112 113.5t163 42.5q74 0 135 -28.5t101.5 -75.5t68 -110t40 -130t12.5 -138q0 -70 -12.5 -137.5t-40 -130.5t-68 -110.5t-101.5 -76t-135 -28.5q-92 0 -163 43t-112 114t-61.5 154t-20.5 172zM190 466q0 -74 12.5 -138.5t39 -120 t74.5 -88t112 -32.5t112 32.5t74.5 88t39 120t12.5 138.5t-12.5 138.5t-39 119.5t-74.5 87.5t-112 32.5t-112 -32.5t-74.5 -87.5t-39 -119.5t-12.5 -138.5z" />
<glyph unicode="1" horiz-adv-x="474" d="M29 693l234 241h102v-934h-116v781l-150 -159z" />
<glyph unicode="2" horiz-adv-x="823" d="M74 801q53 70 139 108.5t186 38.5q81 0 150.5 -29t116.5 -93t47 -153q0 -55 -23.5 -113t-60 -109t-99.5 -113t-122.5 -113t-148.5 -121h458v-104h-641v94q116 91 185 147.5t141 122t109 113t60.5 98t23.5 98.5q0 84 -57.5 127.5t-138.5 43.5q-161 0 -253 -117z" />
<glyph unicode="3" horiz-adv-x="779" d="M41 137l68 73q42 -56 111 -89.5t150 -33.5q101 0 159.5 47.5t58.5 127.5q0 84 -62 124.5t-170 40.5q-83 0 -97 -1v106q15 -1 97 -1q95 0 156 38.5t61 115.5q0 75 -60 117t-149 42q-141 0 -246 -113l-65 73q116 144 321 144q138 0 226.5 -66.5t88.5 -181.5 q0 -93 -61.5 -149t-138.5 -68q34 -3 69.5 -18.5t69 -42.5t55 -71.5t21.5 -98.5q0 -118 -90 -193.5t-242 -75.5q-113 0 -199 43.5t-132 110.5z" />
<glyph unicode="4" horiz-adv-x="781" d="M45 237v96l400 601h160v-595h131v-102h-131v-237h-116v237h-444zM161 339h328v487z" />
<glyph unicode="5" horiz-adv-x="826" d="M92 133l72 78q96 -124 257 -124q94 0 155 57t61 143q0 92 -59.5 147t-154.5 55q-125 0 -216 -87l-85 29v503h571v-104h-455v-325q37 37 94 60.5t124 23.5q125 0 212 -79.5t87 -218.5t-95 -223.5t-239 -84.5q-215 0 -329 150z" />
<glyph unicode="6" horiz-adv-x="827" d="M71 466q0 77 14 147t44.5 131.5t74.5 106.5t107.5 71t140.5 26q163 0 258 -112l-59 -87q-40 47 -85.5 71t-113.5 24q-66 0 -117.5 -31.5t-82.5 -84t-47 -116.5t-16 -135v-36q35 55 108.5 100.5t156.5 45.5q133 0 219 -78t86 -221q0 -126 -89.5 -215.5t-236.5 -89.5 q-95 0 -166.5 39t-113 107.5t-62 153t-20.5 183.5zM193 347q4 -47 18.5 -90t41 -83t71.5 -63.5t103 -23.5q100 0 157 61.5t57 135.5q0 98 -60 150t-154 52q-69 0 -132.5 -38.5t-101.5 -100.5z" />
<glyph unicode="7" horiz-adv-x="721" d="M43 830v104h637v-80l-382 -854h-129l377 830h-503z" />
<glyph unicode="8" horiz-adv-x="814" d="M73 237q0 88 63.5 152t158.5 93q-90 26 -148.5 82.5t-58.5 141.5q0 80 48.5 136.5t118.5 81t152 24.5q60 0 115.5 -14.5t102.5 -43t75 -76.5t28 -108q0 -85 -59.5 -141.5t-149.5 -82.5q95 -29 159 -93t64 -152q0 -115 -96.5 -184.5t-238.5 -69.5q-143 0 -238.5 68.5 t-95.5 185.5zM190 249q0 -73 63 -117.5t154 -44.5q90 0 153.5 44.5t63.5 117.5q0 35 -17.5 65t-42.5 49.5t-56 34.5t-56.5 22.5t-44.5 9.5q-19 -2 -44.5 -9.5t-56.5 -22.5t-56 -34.5t-42.5 -49.5t-17.5 -65zM206 690q0 -40 22.5 -71t58.5 -49t64 -27t56 -14q28 5 57 14 t65 27t58.5 49t22.5 71q0 71 -58 112.5t-145 41.5t-144 -41.5t-57 -112.5z" />
<glyph unicode="9" horiz-adv-x="827" d="M69 644q0 126 89.5 215.5t237.5 89.5q94 0 165.5 -39t113 -107.5t62 -153t20.5 -183.5q0 -97 -23 -182t-68 -152.5t-119.5 -107t-169.5 -39.5q-159 0 -259 112l58 86q40 -46 86.5 -70.5t114.5 -24.5t120.5 32t82.5 85.5t45 116.5t15 133q0 10 -2 36q-35 -55 -108 -100 t-155 -45q-133 0 -219.5 77.5t-86.5 220.5zM186 648q0 -98 60.5 -149.5t155.5 -51.5q68 0 132 38.5t102 101.5q-4 47 -19 90t-42 82.5t-72 63t-103 23.5q-100 0 -157 -61.5t-57 -136.5z" />
<glyph unicode=":" horiz-adv-x="315" d="M84 63q0 31 23 54t54 23t54 -23t23 -54t-23 -54t-54 -23t-54 23t-23 54zM84 609q0 31 23 54t54 23t54 -23t23 -54t-23 -54t-54 -23t-54 23t-23 54z" />
<glyph unicode=";" horiz-adv-x="322" d="M80 -133q34 22 60.5 60t30.5 72q-9 -3 -20 -3q-29 0 -48 20t-19 51t21.5 53.5t52.5 22.5q37 0 62.5 -29t25.5 -78q0 -63 -31.5 -119t-81.5 -92zM84 609q0 31 23 54t54 23t54 -23t23 -54t-23 -54t-54 -23t-54 23t-23 54z" />
<glyph unicode="&#x3c;" horiz-adv-x="698" d="M41 431v74l617 307v-88l-528 -256l528 -254v-88z" />
<glyph unicode="=" horiz-adv-x="698" d="M41 295v75h617v-75h-617zM41 566v74h617v-74h-617z" />
<glyph unicode="&#x3e;" horiz-adv-x="698" d="M41 126v88l527 254l-527 256v88l617 -307v-74z" />
<glyph unicode="?" horiz-adv-x="646" d="M25 805q109 143 304 143q125 0 199.5 -62t74.5 -155q0 -58 -28 -105t-67.5 -77t-79 -56.5t-67.5 -59t-28 -69.5q0 -41 37 -67l-86 -38q-53 45 -53 115q0 49 26 88.5t63 66t74 52t63 59t26 74.5q0 56 -43 93t-121 37q-139 0 -224 -115zM237 63q0 31 22.5 54t54.5 23 t54.5 -23t22.5 -54t-22.5 -54t-54.5 -23t-54.5 23t-22.5 54z" />
<glyph unicode="@" horiz-adv-x="1096" d="M49 342q0 147 78 275t206 202t272 74q195 0 318 -128t123 -316q0 -154 -73 -242t-169 -88q-56 0 -90.5 33t-37.5 80v10q-38 -55 -97.5 -89t-124.5 -34q-97 0 -156 63t-59 165q0 143 101 247.5t228 104.5q65 0 111.5 -31t68.5 -79l18 87h95l-80 -379q-3 -24 -3 -30 q0 -33 19 -52.5t47 -19.5q23 0 47.5 13t49 40.5t40.5 80t16 120.5q0 174 -109.5 285.5t-286.5 111.5q-133 0 -249.5 -70.5t-185 -186.5t-68.5 -245q0 -169 113.5 -282.5t286.5 -113.5q136 0 261 79l25 -37q-137 -88 -291 -88q-190 0 -317 126.5t-127 313.5zM340 353 q0 -69 38 -112.5t105 -43.5q119 0 207 126l41 195q-14 39 -51 70.5t-93 31.5q-103 0 -175 -81t-72 -186z" />
<glyph unicode="A" horiz-adv-x="921" d="M13 0l376 934h144l376 -934h-133l-83 209h-465l-82 -209h-133zM263 311h396l-198 504z" />
<glyph unicode="B" horiz-adv-x="880" d="M109 0v934h416q120 0 191 -66t71 -172q0 -84 -48 -142t-116 -72q75 -11 128.5 -78.5t53.5 -151.5q0 -114 -72 -183t-198 -69h-426zM225 104h287q81 0 127 43t46 118q0 67 -46 114t-127 47h-287v-322zM225 529h280q76 0 118.5 42t42.5 108t-42.5 108.5t-118.5 42.5h-280 v-301z" />
<glyph unicode="C" horiz-adv-x="946" d="M71 466q0 212 138 347.5t343 135.5q225 0 354 -185l-97 -54q-41 61 -110 98.5t-147 37.5q-154 0 -257 -107t-103 -273q0 -165 103 -272t257 -107q77 0 146.5 38t110.5 98l98 -54q-134 -186 -355 -186q-205 0 -343 135.5t-138 347.5z" />
<glyph unicode="D" horiz-adv-x="979" d="M109 0v934h319q215 0 347 -133t132 -335q0 -203 -132 -334.5t-347 -131.5h-319zM225 104h203q165 0 262 103.5t97 258.5q0 157 -95.5 260.5t-263.5 103.5h-203v-726z" />
<glyph unicode="E" horiz-adv-x="796" d="M109 0v934h612v-104h-496v-301h486v-103h-486v-322h496v-104h-612z" />
<glyph unicode="F" horiz-adv-x="771" d="M109 0v934h612v-104h-496v-301h486v-103h-486v-426h-116z" />
<glyph unicode="G" horiz-adv-x="998" d="M71 466q0 142 65 253t174 170.5t242 59.5q223 0 362 -173l-92 -59q-46 59 -117 94t-153 35q-154 0 -257 -107t-103 -273q0 -165 103 -272t257 -107q77 0 144 30t108 71v189h-322v103h436v-336q-144 -162 -366 -162q-133 0 -242 59.5t-174 171t-65 253.5z" />
<glyph unicode="H" horiz-adv-x="996" d="M109 0v934h116v-402h546v402h117v-934h-117v428h-546v-428h-116z" />
<glyph unicode="I" horiz-adv-x="334" d="M109 0v934h116v-934h-116z" />
<glyph unicode="J" horiz-adv-x="665" d="M15 91l62 88q73 -92 175 -92q86 0 137 54t51 142v651h116v-653q0 -146 -82.5 -222t-214.5 -76q-153 0 -244 108z" />
<glyph unicode="K" horiz-adv-x="841" d="M109 0v934h116v-482l413 482h146l-389 -443l424 -491h-146l-354 420l-94 -106v-314h-116z" />
<glyph unicode="L" horiz-adv-x="690" d="M94 0v934h116v-830h434v-104h-550z" />
<glyph unicode="M" horiz-adv-x="1132" d="M109 0v934h167l291 -720l290 720h166v-934h-116v785l-316 -785h-48l-318 785v-785h-116z" />
<glyph unicode="N" horiz-adv-x="991" d="M109 0v934h119l538 -730v730h116v-934h-112l-545 745v-745h-116z" />
<glyph unicode="O" horiz-adv-x="1071" d="M71 466q0 209 129.5 346t334.5 137t335 -137t130 -346t-130 -346t-335 -137t-334.5 137t-129.5 346zM192 466q0 -165 94 -272t249 -107t249.5 107t94.5 272q0 166 -94.5 273t-249.5 107t-249 -107t-94 -273z" />
<glyph unicode="P" horiz-adv-x="821" d="M109 0v934h375q136 0 214.5 -81t78.5 -201q0 -119 -79 -200t-214 -81h-259v-371h-116zM225 475h245q83 0 135 49t52 128t-52 128.5t-135 49.5h-245v-355z" />
<glyph unicode="Q" horiz-adv-x="1071" d="M71 466q0 209 129.5 346t334.5 137t335 -137t130 -346q0 -207 -129 -346l88 -93l-80 -70l-91 96q-109 -70 -253 -70q-205 0 -334.5 137t-129.5 346zM192 466q0 -165 94 -272t249 -107q102 0 178 47l-133 145l81 68l131 -143q87 106 87 262q0 166 -94.5 273t-249.5 107 t-249 -107t-94 -273z" />
<glyph unicode="R" horiz-adv-x="852" d="M109 0v934h375q130 0 212 -77t82 -205q0 -120 -70.5 -191t-172.5 -80l252 -381h-137l-237 371h-188v-371h-116zM225 473h245q83 0 135.5 50t52.5 129t-52.5 128.5t-135.5 49.5h-245v-357z" />
<glyph unicode="S" horiz-adv-x="820" d="M53 132l70 89q50 -58 125.5 -96t167.5 -38q114 0 167 48.5t53 113.5q0 49 -30.5 82.5t-79.5 52.5t-107.5 34t-117.5 34t-108 45.5t-79.5 75t-30.5 116.5q0 115 91 187.5t231 72.5q207 0 330 -131l-70 -86q-101 112 -270 112q-84 0 -138 -41t-54 -107q0 -42 30.5 -71.5 t79.5 -46.5t107.5 -32t117.5 -35.5t108 -49.5t79.5 -80.5t30.5 -122.5q0 -53 -19 -100t-58 -87.5t-107.5 -64t-159.5 -23.5q-227 0 -359 149z" />
<glyph unicode="T" horiz-adv-x="798" d="M45 830v104h708v-104h-297v-830h-116v830h-295z" />
<glyph unicode="U" horiz-adv-x="981" d="M109 363v571h118v-569q0 -130 68 -204t195 -74t196 74t69 204v569h117v-570q0 -178 -98 -279.5t-284 -101.5q-185 0 -283 102t-98 278z" />
<glyph unicode="V" horiz-adv-x="921" d="M13 934h133l315 -807l315 807h133l-376 -934h-144z" />
<glyph unicode="W" horiz-adv-x="1236" d="M20 934h128l208 -779l214 779h96l215 -779l205 779h131l-268 -934h-126l-206 753l-205 -753h-126z" />
<glyph unicode="X" horiz-adv-x="912" d="M17 0l364 479l-343 455h141l277 -373l276 373h143l-343 -454l364 -480h-141l-299 398l-298 -398h-141z" />
<glyph unicode="Y" horiz-adv-x="876" d="M13 934h135l290 -434l290 434h136l-367 -539v-395h-116v395z" />
<glyph unicode="Z" horiz-adv-x="819" d="M67 0v97l525 733h-525v104h675v-97l-526 -733h536v-104h-685z" />
<glyph unicode="[" horiz-adv-x="340" d="M56 -266v1215h260v-77h-177v-1061h177v-77h-260z" />
<glyph unicode="\" horiz-adv-x="414" d="M0 962h83l331 -990h-82z" />
<glyph unicode="]" horiz-adv-x="340" d="M24 -189h179v1061h-179v77h262v-1215h-262v77z" />
<glyph unicode="^" horiz-adv-x="604" d="M27 466l236 468h80l235 -468h-87l-189 391l-189 -391h-86z" />
<glyph unicode="_" horiz-adv-x="789" d="M-4 -56h798v-77h-798v77z" />
<glyph unicode="a" horiz-adv-x="739" d="M69 207q0 107 70 165t165 58q143 0 224 -91v122q0 66 -47.5 103.5t-123.5 37.5q-122 0 -207 -94l-49 73q108 112 270 112q117 0 189.5 -56t72.5 -172v-465h-105v77q-83 -94 -224 -94q-92 0 -163.5 60t-71.5 164zM175 207q0 -65 47 -106.5t121 -41.5q123 0 185 84v129 q-30 40 -79 61t-106 21q-74 0 -121 -41.5t-47 -105.5z" />
<glyph unicode="b" horiz-adv-x="805" d="M105 0v934h105v-360q42 56 101.5 87.5t126.5 31.5q134 0 217.5 -97t83.5 -259q0 -163 -83.5 -258.5t-217.5 -95.5q-69 0 -129 32t-99 86v-101h-105zM210 183q28 -45 84.5 -75.5t118.5 -30.5q100 0 158.5 72.5t58.5 187.5t-58.5 188.5t-158.5 73.5q-61 0 -118 -31.5 t-85 -77.5v-307z" />
<glyph unicode="c" horiz-adv-x="694" d="M66 339q0 152 94 253t243 101q156 0 248 -118l-70 -63q-63 87 -172 87q-106 0 -170 -73t-64 -187t64 -188t170 -74t172 88l70 -64q-92 -118 -248 -118q-149 0 -243 102t-94 254z" />
<glyph unicode="d" horiz-adv-x="805" d="M66 337q0 161 84 258.5t217 97.5q67 0 126.5 -31.5t101.5 -87.5v360h105v-934h-105v101q-39 -54 -99 -86t-129 -32q-134 0 -217.5 95.5t-83.5 258.5zM175 337q0 -115 58.5 -187.5t159.5 -72.5q61 0 117.5 31.5t84.5 76.5v305q-28 46 -84.5 77.5t-117.5 31.5 q-101 0 -159.5 -73.5t-58.5 -188.5z" />
<glyph unicode="e" horiz-adv-x="788" d="M66 339q0 149 95 251.5t238 102.5q149 0 237 -103t88 -260v-26h-546q6 -100 71 -167t171 -67q125 0 210 87l50 -69q-108 -105 -268 -105q-152 0 -249 99t-97 257zM176 382h444q-1 85 -58.5 154.5t-163.5 69.5q-100 0 -158.5 -68.5t-63.5 -155.5z" />
<glyph unicode="f" horiz-adv-x="397" d="M22 584v92h112v52q0 103 53 161.5t143 58.5q87 0 143 -52l-43 -67q-35 32 -83 32q-108 0 -108 -133v-52h138v-92h-138v-584h-105v584h-112z" />
<glyph unicode="g" horiz-adv-x="805" d="M66 342q0 161 83 256t218 95q67 0 126.5 -31.5t101.5 -87.5v102h105v-666q0 -77 -26.5 -134t-73.5 -88.5t-102.5 -46.5t-120.5 -15q-89 0 -152 22t-121 80l53 75q41 -49 93.5 -70t126.5 -21q93 0 155.5 49t62.5 149v102q-39 -54 -99 -87t-129 -33q-134 0 -217.5 94.5 t-83.5 255.5zM175 342q0 -113 58.5 -185t159.5 -72q60 0 116 32t86 78v296q-30 45 -86 76.5t-116 31.5q-101 0 -159.5 -71t-58.5 -186z" />
<glyph unicode="h" horiz-adv-x="772" d="M106 0v934h105v-356q38 47 103.5 81t137.5 34q216 0 216 -216v-477h-105v445q0 85 -39 119.5t-114 34.5q-58 0 -113 -30.5t-86 -74.5v-494h-105z" />
<glyph unicode="i" horiz-adv-x="315" d="M87 843q0 29 21 50t50 21t49.5 -21t20.5 -50t-20.5 -49.5t-49.5 -20.5t-50 20.5t-21 49.5zM105 0v676h105v-676h-105z" />
<glyph unicode="j" horiz-adv-x="315" d="M-137 -224l36 78q42 -42 97 -42q50 0 79.5 30.5t29.5 91.5v742h105v-742q0 -100 -51.5 -154t-148.5 -54q-50 0 -82 11.5t-65 38.5zM87 843q0 29 21 50t50 21t49.5 -21t20.5 -50t-20.5 -49.5t-49.5 -20.5t-50 20.5t-21 49.5z" />
<glyph unicode="k" horiz-adv-x="719" d="M105 0v934h105v-618l356 360h133l-300 -306l301 -370h-134l-243 304l-113 -111v-193h-105z" />
<glyph unicode="l" horiz-adv-x="315" d="M105 0v934h105v-934h-105z" />
<glyph unicode="m" horiz-adv-x="1131" d="M105 0v676h105v-98q27 40 89.5 77.5t130.5 37.5q73 0 118.5 -35t61.5 -91q31 50 94.5 88t132.5 38q189 0 189 -204v-489h-105v459q0 140 -124 140q-51 0 -102 -30t-78 -73v-496h-105v459q0 140 -124 140q-50 0 -100 -31t-78 -74v-494h-105z" />
<glyph unicode="n" horiz-adv-x="772" d="M105 0v676h105v-98q40 47 105 81t137 34q214 0 214 -218v-475h-103v442q0 85 -40 121t-113 36q-59 0 -113 -30.5t-87 -74.5v-494h-105z" />
<glyph unicode="o" d="M66 339q0 151 91.5 252.5t242.5 101.5t243 -101.5t92 -252.5t-92 -253.5t-243 -102.5t-242.5 102.5t-91.5 253.5zM176 339q0 -110 60 -186t164 -76t164 76t60 186q0 108 -60 184t-164 76t-164 -76t-60 -184z" />
<glyph unicode="p" d="M105 -258v934h105v-101q38 53 98.5 85.5t129.5 32.5q135 0 218 -95.5t83 -258.5q0 -162 -83 -259t-218 -97q-138 0 -228 119v-360h-105zM210 186q28 -46 84.5 -77.5t117.5 -31.5q100 0 158.5 73.5t58.5 188.5t-58.5 187.5t-158.5 72.5q-61 0 -117.5 -31.5t-84.5 -76.5 v-305z" />
<glyph unicode="q" d="M62 339q0 163 83 258.5t218 95.5q69 0 129.5 -32.5t98.5 -85.5v101h105v-934h-105v360q-90 -119 -228 -119q-135 0 -218 97t-83 259zM172 339q0 -115 58.5 -188.5t158.5 -73.5q61 0 117.5 31.5t84.5 77.5v305q-28 45 -84.5 76.5t-117.5 31.5q-100 0 -158.5 -72.5 t-58.5 -187.5z" />
<glyph unicode="r" horiz-adv-x="461" d="M105 0v676h105v-108q97 124 225 124v-108q-39 3 -40 3q-49 0 -105.5 -33t-79.5 -75v-479h-105z" />
<glyph unicode="s" horiz-adv-x="651" d="M48 90l53 75q36 -41 96 -68.5t126 -27.5q76 0 118.5 32t42.5 84q0 38 -31 63t-77.5 35.5t-100.5 25.5t-100.5 32.5t-77.5 57.5t-31 99q0 83 67 139t183 56q157 0 251 -98l-49 -73q-32 38 -85 62t-117 24q-68 0 -108.5 -30.5t-40.5 -76.5q0 -30 23 -49.5t60 -31 t81.5 -21.5t89 -24t81.5 -35t60 -60t23 -92q0 -89 -69 -147t-195 -58q-169 0 -273 107z" />
<glyph unicode="t" horiz-adv-x="411" d="M14 584v92h112v185h106v-185h138v-92h-138v-420q0 -39 17.5 -63t50.5 -24q44 0 71 29l31 -79q-48 -44 -125 -44q-75 0 -113 40.5t-38 117.5v443h-112z" />
<glyph unicode="u" horiz-adv-x="771" d="M105 199v477h105v-445q0 -85 39.5 -119.5t113.5 -34.5q58 0 112.5 29.5t85.5 72.5v497h105v-676h-105v95q-43 -48 -106 -80t-134 -32q-216 0 -216 216z" />
<glyph unicode="v" horiz-adv-x="686" d="M4 676h115l224 -554l225 554h114l-282 -676h-114z" />
<glyph unicode="w" horiz-adv-x="1027" d="M17 676h109l165 -539l178 539h91l176 -539l166 539h110l-215 -676h-107l-176 543l-177 -543h-105z" />
<glyph unicode="x" horiz-adv-x="681" d="M17 0l259 347l-245 329h122l187 -257l189 257h121l-245 -329l260 -347h-120l-205 277l-203 -277h-120z" />
<glyph unicode="y" horiz-adv-x="686" d="M4 676h115l224 -554l225 554h114l-339 -813q-57 -135 -199 -137q-48 0 -75 9l15 96q26 -12 57 -12q36 0 60 16t41 56l45 102z" />
<glyph unicode="z" horiz-adv-x="660" d="M73 0v83l372 501h-372v92h509v-80l-375 -504h381v-92h-515z" />
<glyph unicode="{" horiz-adv-x="365" d="M7 307v70q36 0 55 27.5t19 68.5v287q0 84 52.5 136.5t121.5 52.5h87v-77h-87q-38 0 -65.5 -31t-27.5 -79v-297q0 -96 -63 -123q63 -27 63 -124v-295q0 -47 28 -79.5t65 -32.5h87v-77h-87q-69 0 -121.5 52.5t-52.5 135.5v288q0 42 -19 69.5t-55 27.5z" />
<glyph unicode="|" horiz-adv-x="295" d="M109 -28v990h77v-990h-77z" />
<glyph unicode="}" horiz-adv-x="365" d="M24 -189h85q38 0 66 32.5t28 79.5v295q0 97 63 124q-63 27 -63 123v297q0 48 -27.5 79t-66.5 31h-85v77h85q71 0 123 -52.5t52 -136.5v-287q0 -41 19 -68.5t54 -27.5v-70q-35 0 -54 -28t-19 -69v-288q0 -83 -52 -135.5t-123 -52.5h-85v77z" />
<glyph unicode="~" horiz-adv-x="704" d="M38 601q6 70 17.5 124t32.5 103.5t57.5 76.5t85.5 27t81.5 -27.5t49 -67t29.5 -78.5t32.5 -66.5t49.5 -27.5q90 0 115 269l77 -9q-6 -71 -17 -124.5t-32 -104t-57 -77.5t-86 -27q-49 0 -81.5 27.5t-49 66.5t-29.5 78t-32.5 66.5t-49.5 27.5q-89 0 -115 -267z" />
<glyph unicode="&#xa1;" horiz-adv-x="322" d="M84 613q0 31 23 54t54 23t53.5 -22.5t22.5 -54.5q0 -31 -22.5 -53t-53.5 -22q-32 0 -54.5 22t-22.5 53zM95 -258l21 672h88l23 -672h-132z" />
<glyph unicode="&#xa2;" horiz-adv-x="694" d="M66 339q0 138 79 235t208 115v102h82v-99q130 -10 216 -117l-70 -63q-56 77 -146 86v-520q89 9 146 87l70 -64q-82 -106 -216 -116v-125h-82v127q-129 16 -208 114.5t-79 237.5zM175 339q0 -98 47.5 -167.5t130.5 -88.5v511q-83 -19 -130.5 -88t-47.5 -167z" />
<glyph unicode="&#xa3;" horiz-adv-x="725" d="M28 375v76h147q-1 2 -14.5 17.5t-16 18.5t-14.5 18t-15 20.5t-12.5 19.5t-12.5 22.5t-9 22.5t-8 25.5t-4 26.5t-2 30q0 115 93 195.5t221 80.5q95 0 169.5 -41.5t113.5 -115.5l-94 -56q-19 48 -68 81.5t-110 33.5q-83 0 -141 -49t-58 -130q0 -36 12.5 -70.5t23.5 -51.5 t40.5 -53t35.5 -45h210v-76h-171q10 -30 10 -60q0 -109 -106 -185q39 13 73 13q47 0 108 -29t99 -29q43 0 80.5 17.5t52.5 38.5l50 -93q-68 -66 -189 -66q-66 0 -133 32t-117 32q-59 0 -166 -56l-40 88q89 39 137 94.5t48 118.5q0 44 -21 84h-202z" />
<glyph unicode="&#xa4;" horiz-adv-x="730" d="M50 192l79 78q-70 87 -70 196q0 110 70 196l-79 80l40 39l79 -78q84 70 196 70q110 0 196 -70l79 78l40 -39l-78 -80q70 -86 70 -196q0 -109 -70 -196l78 -78l-40 -41l-79 80q-85 -71 -196 -71t-196 71l-79 -80zM126 466q0 -99 70 -169t169 -70t169.5 70t70.5 169 q0 100 -70.5 170t-169.5 70t-169 -70t-70 -170z" />
<glyph unicode="&#xa5;" horiz-adv-x="876" d="M13 934h135l290 -434l290 434h136l-318 -466h301v-73h-350v-150h350v-74h-350v-171h-116v171h-350v74h350v150h-350v73h299z" />
<glyph unicode="&#xa6;" horiz-adv-x="295" d="M109 -28v442h77v-442h-77zM109 519v443h77v-443h-77z" />
<glyph unicode="&#xa7;" horiz-adv-x="655" d="M48 -4l53 68q35 -42 92.5 -70.5t127.5 -28.5q73 0 118 32t45 88q0 47 -43 74.5t-104.5 42.5t-123 33t-104.5 60.5t-43 111.5t45 114.5t114 63.5q-78 25 -118.5 66t-40.5 108q0 80 67.5 134.5t182.5 54.5q163 0 251 -100l-49 -63q-71 84 -197 84q-69 0 -111.5 -30.5 t-42.5 -81.5q0 -32 23 -53t60 -32.5t81.5 -21.5t89 -24t81.5 -34.5t60 -59t23 -91.5q0 -59 -33 -105t-96 -73q129 -51 129 -171q0 -96 -72.5 -150.5t-191.5 -54.5q-95 0 -157.5 29t-115.5 80zM167 417q0 -23 11 -41t24 -29t43 -22.5t47 -16t57 -14.5q11 -3 16 -4 q58 25 87.5 57.5t29.5 80.5q0 29 -13 50.5t-38.5 36.5t-49 23.5t-58.5 17.5q-87 -22 -121.5 -56t-34.5 -83z" />
<glyph unicode="&#xa8;" horiz-adv-x="380" d="M-20 846q0 27 19.5 45.5t46.5 18.5t46 -18.5t19 -45.5q0 -26 -19.5 -45.5t-45.5 -19.5q-27 0 -46.5 19.5t-19.5 45.5zM270 846q0 27 19 45.5t46 18.5t46 -18.5t19 -45.5q0 -26 -19 -45.5t-46 -19.5q-26 0 -45.5 19.5t-19.5 45.5z" />
<glyph unicode="&#xa9;" horiz-adv-x="1089" d="M62 468q0 131 65 242.5t176 176t242 64.5q200 0 341.5 -141.5t141.5 -341.5q0 -131 -64.5 -242t-176 -176t-242.5 -65t-242 65t-176 176t-65 242zM105 468q0 -118 59.5 -219.5t161 -161t219.5 -59.5q181 0 310 129.5t129 310.5q0 182 -129 310.5t-310 128.5t-310.5 -129 t-129.5 -310zM256 470q0 127 84.5 212t206.5 85q127 0 205 -91l-35 -35q-27 36 -73.5 58t-96.5 22q-98 0 -168.5 -71t-70.5 -181q0 -108 71 -180.5t168 -72.5q50 0 96.5 22t73.5 59l36 -35q-79 -93 -206 -93q-122 0 -206.5 87t-84.5 214z" />
<glyph unicode="&#xaa;" horiz-adv-x="529" d="M57 591q0 68 47 106t110 38q94 0 151 -59v77q0 41 -32.5 66t-79.5 25q-83 0 -137 -64l-36 53q73 74 183 74q80 0 131 -37.5t51 -117.5v-296h-80v49q-58 -60 -151 -60q-62 0 -109.5 39.5t-47.5 106.5zM139 591q0 -42 29.5 -67.5t76.5 -25.5q77 0 120 54v78q-42 53 -120 53 q-47 0 -76.5 -25.5t-29.5 -66.5z" />
<glyph unicode="&#xab;" horiz-adv-x="614" d="M42 340l224 248h105l-224 -248l224 -252h-105zM244 340l224 248h105l-224 -248l224 -252h-105z" />
<glyph unicode="&#xac;" horiz-adv-x="705" d="M41 566v74h617v-345h-77v271h-540z" />
<glyph unicode="&#xad;" horiz-adv-x="420" d="M42 293v92h336v-92h-336z" />
<glyph unicode="&#xae;" horiz-adv-x="691" d="M49 651q0 124 87 210.5t210 86.5q124 0 210.5 -86.5t86.5 -210.5q0 -123 -86.5 -210t-210.5 -87q-123 0 -210 87t-87 210zM90 651q0 -105 75 -180.5t181 -75.5t181 75.5t75 180.5q0 107 -75 181.5t-181 74.5t-181 -74.5t-75 -181.5zM232 480v340h139q44 0 76 -28.5 t32 -74.5q0 -50 -31.5 -75.5t-55.5 -25.5l91 -136h-56l-88 135h-62v-135h-45zM277 655h94q23 0 42.5 18.5t19.5 43.5q0 27 -19.5 45.5t-42.5 18.5h-94v-126z" />
<glyph unicode="&#xb0;" horiz-adv-x="406" d="M32 777q0 71 50 121t121 50t121 -50t50 -121t-50 -121t-121 -50t-121 50t-50 121zM101 777q0 -43 29.5 -72.5t72.5 -29.5q42 0 73 30t31 72t-31 73t-73 31t-72 -31t-30 -73z" />
<glyph unicode="&#xb1;" horiz-adv-x="698" d="M41 0v74h617v-74h-617zM41 454v72h268v290h80v-290h269v-72h-269v-299h-80v299h-268z" />
<glyph unicode="&#xb2;" horiz-adv-x="543" d="M69 1070q33 43 88.5 65.5t116.5 22.5q84 0 142.5 -42t58.5 -123q0 -78 -70.5 -155.5t-211.5 -179.5h284v-69h-407v63q175 126 248 198.5t73 136.5q0 50 -35 76t-84 26t-91.5 -21t-65.5 -52z" />
<glyph unicode="&#xb3;" horiz-adv-x="543" d="M59 671l46 53q27 -35 70.5 -55.5t91.5 -20.5q60 0 94.5 26.5t34.5 71.5q0 50 -39.5 73.5t-105.5 23.5q-40 0 -56 -2v70q10 -1 56 -1q137 0 137 90q0 42 -36 65.5t-90 23.5q-90 0 -153 -67l-43 49q76 87 204 87q89 0 144.5 -41t55.5 -109q0 -56 -38 -89t-86 -40 q49 -6 91.5 -41t42.5 -96q0 -72 -56.5 -117t-154.5 -45q-71 0 -126 25.5t-84 65.5z" />
<glyph unicode="&#xb4;" horiz-adv-x="316" d="M0 778l207 202h109l-236 -202h-80z" />
<glyph unicode="&#xb6;" horiz-adv-x="628" d="M38 693q0 100 70.5 170.5t170.5 70.5h250v-1074h-63v1011h-124v-1011h-63v592q-100 0 -170.5 70.5t-70.5 170.5z" />
<glyph unicode="&#xb8;" horiz-adv-x="287" d="M0 -225l27 53q51 -41 112 -41q36 0 60.5 16t24.5 43q0 49 -52 49q-32 0 -53 -24l-46 27l43 117h63l-36 -92q19 15 52 15q40 0 66 -25.5t26 -67.5q0 -51 -42 -81.5t-104 -30.5q-88 0 -141 42z" />
<glyph unicode="&#xb9;" horiz-adv-x="329" d="M20 995l151 154h74v-560h-84v451l-92 -96z" />
<glyph unicode="&#xba;" horiz-adv-x="567" d="M56 676q0 98 62.5 164.5t164.5 66.5q103 0 165.5 -66.5t62.5 -164.5t-62.5 -164.5t-165.5 -66.5q-102 0 -164.5 67t-62.5 164zM140 676q0 -71 38.5 -117.5t104.5 -46.5q67 0 106 46.5t39 117.5t-39 117t-106 46q-66 0 -104.5 -46t-38.5 -117z" />
<glyph unicode="&#xbb;" horiz-adv-x="614" d="M42 88l224 252l-224 248h105l224 -248l-224 -252h-105zM244 88l224 252l-224 248h105l224 -248l-224 -252h-105z" />
<glyph unicode="&#xbc;" horiz-adv-x="1078" d="M20 780l151 154h74v-560h-84v451l-92 -97zM153 0l596 934h77l-598 -934h-75zM588 140v63l242 357h116v-351h80v-69h-80v-140h-84v140h-274zM672 209h190v277z" />
<glyph unicode="&#xbd;" horiz-adv-x="1129" d="M20 780l151 154h74v-560h-84v451l-92 -97zM153 0l596 934h77l-598 -934h-75zM655 480q33 43 89 65.5t117 22.5q84 0 142 -42t58 -123q0 -78 -70 -155t-211 -179h284v-69h-407v63q175 126 247.5 198.5t72.5 136.5q0 50 -35 76t-84 26t-91.5 -21t-65.5 -52z" />
<glyph unicode="&#xbe;" horiz-adv-x="1229" d="M59 455l46 53q27 -35 70.5 -55t91.5 -20q60 0 94.5 26.5t34.5 71.5q0 96 -145 96q-48 0 -56 -1v70q20 -2 56 -2q137 0 137 90q0 43 -36 66.5t-90 23.5q-90 0 -153 -68l-43 49q76 87 204 87q89 0 144.5 -41t55.5 -109q0 -56 -38 -88.5t-86 -39.5q49 -6 91.5 -41.5 t42.5 -96.5q0 -72 -56.5 -117t-154.5 -45q-71 0 -126 25.5t-84 65.5zM304 0l596 934h77l-598 -934h-75zM741 140v63l242 357h116v-351h80v-69h-80v-140h-84v140h-274zM825 209h190v277z" />
<glyph unicode="&#xbf;" horiz-adv-x="551" d="M43 -57q0 49 20 90.5t50 67.5t65.5 52.5t65.5 47t50 48.5t20 60q0 42 -37 68l86 37q53 -45 53 -114q0 -49 -26 -88.5t-63 -66.5t-74 -52.5t-63 -59t-26 -74.5q0 -56 43 -93t121 -37q138 0 224 114l70 -75q-108 -142 -304 -142q-125 0 -200 62t-75 155zM256 613 q0 31 23 54t54 23t54 -23t23 -54t-23 -54t-54 -23t-54 23t-23 54z" />
<glyph unicode="&#xc0;" horiz-adv-x="921" d="M13 0l376 934h144l376 -934h-133l-83 209h-465l-82 -209h-133zM238 1221h109l207 -202h-79zM263 311h396l-198 504z" />
<glyph unicode="&#xc1;" horiz-adv-x="921" d="M13 0l376 934h144l376 -934h-133l-83 209h-465l-82 -209h-133zM263 311h396l-198 504zM370 1019l207 202h109l-237 -202h-79z" />
<glyph unicode="&#xc2;" horiz-adv-x="921" d="M13 0l376 934h144l376 -934h-133l-83 209h-465l-82 -209h-133zM263 311h396l-198 504zM277 1019l133 202h101l137 -202h-71l-116 149l-112 -149h-72z" />
<glyph unicode="&#xc3;" horiz-adv-x="921" d="M13 0l376 934h144l376 -934h-133l-83 209h-465l-82 -209h-133zM242 1025q0 84 36 135.5t100 51.5q34 0 60 -20t39 -44t32 -44t41 -20q30 0 48.5 30t18.5 90h63q0 -84 -35.5 -136t-99.5 -52q-34 0 -60 20t-39.5 44.5t-32.5 44.5t-41 20q-30 0 -48.5 -30t-18.5 -90h-63z M263 311h396l-198 504z" />
<glyph unicode="&#xc4;" horiz-adv-x="921" d="M13 0l376 934h144l376 -934h-133l-83 209h-465l-82 -209h-133zM252 1082q0 27 19.5 46t46.5 19q26 0 45 -19t19 -46q0 -26 -19 -45t-45 -19q-27 0 -46.5 19t-19.5 45zM263 311h396l-198 504zM542 1082q0 27 19 46t45 19q27 0 46.5 -19t19.5 -46q0 -26 -19.5 -45 t-46.5 -19q-26 0 -45 19t-19 45z" />
<glyph unicode="&#xc5;" horiz-adv-x="921" d="M13 0l376 934h144l376 -934h-133l-83 209h-465l-82 -209h-133zM263 311h396l-198 504zM323 1107q0 57 41 98t98 41t96.5 -41t39.5 -98t-39.5 -97.5t-96.5 -40.5t-98 40.5t-41 97.5zM379 1107q0 -34 24.5 -58t58.5 -24t57.5 24t23.5 58t-23.5 58.5t-57.5 24.5t-58.5 -24.5 t-24.5 -58.5z" />
<glyph unicode="&#xc6;" horiz-adv-x="1327" d="M10 0l582 934h658v-104h-495v-301h485v-103h-485v-322h495v-104h-612v209h-366l-129 -209h-133zM328 311h310v504z" />
<glyph unicode="&#xc7;" horiz-adv-x="946" d="M71 466q0 212 138 347.5t343 135.5q225 0 354 -185l-97 -54q-41 61 -110 98.5t-147 37.5q-154 0 -257 -107t-103 -273q0 -165 103 -272t257 -107q77 0 146.5 38t110.5 98l98 -54q-133 -181 -341 -186l-21 -54q19 15 51 15q40 0 66.5 -26t26.5 -68q0 -51 -42 -81.5 t-104 -30.5q-88 0 -141 42l26 53q50 -40 112 -40q36 0 61 16t25 43q0 49 -52 49q-32 0 -53 -24l-46 26l29 83q-188 16 -310.5 148.5t-122.5 331.5z" />
<glyph unicode="&#xc8;" horiz-adv-x="796" d="M109 0v934h612v-104h-496v-301h486v-103h-486v-322h496v-104h-612zM192 1221h109l207 -202h-80z" />
<glyph unicode="&#xc9;" horiz-adv-x="796" d="M109 0v934h612v-104h-496v-301h486v-103h-486v-322h496v-104h-612zM322 1019l207 202h109l-236 -202h-80z" />
<glyph unicode="&#xca;" horiz-adv-x="796" d="M109 0v934h612v-104h-496v-301h486v-103h-486v-322h496v-104h-612zM228 1019l133 202h101l137 -202h-71l-116 149l-112 -149h-72z" />
<glyph unicode="&#xcb;" horiz-adv-x="796" d="M109 0v934h612v-104h-496v-301h486v-103h-486v-322h496v-104h-612zM204 1082q0 27 19.5 46t46.5 19q26 0 45.5 -19t19.5 -46q0 -26 -19.5 -45t-45.5 -19q-27 0 -46.5 19t-19.5 45zM494 1082q0 27 19.5 46t45.5 19q27 0 46 -19t19 -46q0 -26 -19 -45t-46 -19 q-26 0 -45.5 19t-19.5 45z" />
<glyph unicode="&#xcc;" horiz-adv-x="334" d="M-57 1221h109l207 -202h-80zM109 0v934h116v-934h-116z" />
<glyph unicode="&#xcd;" horiz-adv-x="334" d="M77 1019l207 202h109l-236 -202h-80zM109 0v934h116v-934h-116z" />
<glyph unicode="&#xce;" horiz-adv-x="334" d="M-18 1019l133 202h101l137 -202h-72l-116 149l-112 -149h-71zM109 0v934h116v-934h-116z" />
<glyph unicode="&#xcf;" horiz-adv-x="334" d="M-43 1082q0 27 19 46t46 19q26 0 45.5 -19t19.5 -46q0 -26 -19.5 -45t-45.5 -19q-27 0 -46 19t-19 45zM109 0v934h116v-934h-116zM246 1082q0 27 19.5 46t45.5 19q27 0 46.5 -19t19.5 -46q0 -26 -19.5 -45t-46.5 -19q-26 0 -45.5 19t-19.5 45z" />
<glyph unicode="&#xd0;" horiz-adv-x="1019" d="M14 419v85h134v430h320q215 0 346.5 -133t131.5 -335q0 -203 -131.5 -334.5t-346.5 -131.5h-320v419h-134zM265 104h203q165 0 261.5 103.5t96.5 258.5q0 158 -95 261t-263 103h-203v-326h236v-85h-236v-315z" />
<glyph unicode="&#xd1;" horiz-adv-x="991" d="M109 0v934h119l538 -730v730h116v-934h-112l-545 745v-745h-116zM274 1025q0 84 36 135.5t100 51.5q34 0 60 -20t39 -44t32 -44t41 -20q30 0 49 30t19 90h63q0 -84 -36 -136t-100 -52q-34 0 -60 20t-39 44.5t-32 44.5t-41 20q-30 0 -49 -30t-19 -90h-63z" />
<glyph unicode="&#xd2;" horiz-adv-x="1071" d="M71 466q0 209 129.5 346t334.5 137t335 -137t130 -346t-130 -346t-335 -137t-334.5 137t-129.5 346zM192 466q0 -165 94 -272t249 -107t249.5 107t94.5 272q0 166 -94.5 273t-249.5 107t-249 -107t-94 -273zM316 1221h110l207 -202h-80z" />
<glyph unicode="&#xd3;" horiz-adv-x="1071" d="M71 466q0 209 129.5 346t334.5 137t335 -137t130 -346t-130 -346t-335 -137t-334.5 137t-129.5 346zM192 466q0 -165 94 -272t249 -107t249.5 107t94.5 272q0 166 -94.5 273t-249.5 107t-249 -107t-94 -273zM445 1019l207 202h110l-237 -202h-80z" />
<glyph unicode="&#xd4;" horiz-adv-x="1071" d="M71 466q0 209 129.5 346t334.5 137t335 -137t130 -346t-130 -346t-335 -137t-334.5 137t-129.5 346zM192 466q0 -165 94 -272t249 -107t249.5 107t94.5 272q0 166 -94.5 273t-249.5 107t-249 -107t-94 -273zM353 1019l133 202h101l137 -202h-72l-116 149l-112 -149h-71z " />
<glyph unicode="&#xd5;" horiz-adv-x="1071" d="M71 466q0 209 129.5 346t334.5 137t335 -137t130 -346t-130 -346t-335 -137t-334.5 137t-129.5 346zM192 466q0 -165 94 -272t249 -107t249.5 107t94.5 272q0 166 -94.5 273t-249.5 107t-249 -107t-94 -273zM316 1025q0 84 36 135.5t100 51.5q34 0 60 -20t39 -44t32 -44 t41 -20q30 0 49 30t19 90h63q0 -84 -36 -136t-100 -52q-34 0 -60 20t-39 44.5t-32 44.5t-41 20q-30 0 -49 -30t-19 -90h-63z" />
<glyph unicode="&#xd6;" horiz-adv-x="1071" d="M71 466q0 209 129.5 346t334.5 137t335 -137t130 -346t-130 -346t-335 -137t-334.5 137t-129.5 346zM192 466q0 -165 94 -272t249 -107t249.5 107t94.5 272q0 166 -94.5 273t-249.5 107t-249 -107t-94 -273zM325 1082q0 27 19.5 46t46.5 19q26 0 45 -19t19 -46 q0 -26 -19 -45t-45 -19q-27 0 -46.5 19t-19.5 45zM615 1082q0 27 19 46t45 19q27 0 46.5 -19t19.5 -46q0 -26 -19.5 -45t-46.5 -19q-26 0 -45 19t-19 45z" />
<glyph unicode="&#xd7;" horiz-adv-x="698" d="M90 259l208 209l-208 208l51 52l208 -209l208 209l52 -52l-207 -208l207 -209l-52 -52l-208 209l-208 -209z" />
<glyph unicode="&#xd8;" horiz-adv-x="1071" d="M71 466q0 209 129.5 346t334.5 137q130 0 234 -59l29 44h94l-59 -88q79 -66 123 -165t44 -215q0 -209 -130 -346t-335 -137q-135 0 -241 63l-31 -46h-94l62 91q-76 66 -118 163t-42 212zM192 466q0 -174 102 -281l414 616q-79 45 -173 45q-155 0 -249 -107t-94 -273z M354 136q77 -49 181 -49q155 0 249.5 107t94.5 272q0 180 -109 287z" />
<glyph unicode="&#xd9;" horiz-adv-x="981" d="M109 363v571h118v-569q0 -130 68 -204t195 -74t196 74t69 204v569h117v-570q0 -178 -98 -279.5t-284 -101.5q-185 0 -283 102t-98 278zM269 1221h109l207 -202h-80z" />
<glyph unicode="&#xda;" horiz-adv-x="981" d="M109 363v571h118v-569q0 -130 68 -204t195 -74t196 74t69 204v569h117v-570q0 -178 -98 -279.5t-284 -101.5q-185 0 -283 102t-98 278zM398 1019l207 202h109l-237 -202h-79z" />
<glyph unicode="&#xdb;" horiz-adv-x="981" d="M109 363v571h118v-569q0 -130 68 -204t195 -74t196 74t69 204v569h117v-570q0 -178 -98 -279.5t-284 -101.5q-185 0 -283 102t-98 278zM312 1019l133 202h101l137 -202h-71l-116 149l-112 -149h-72z" />
<glyph unicode="&#xdc;" horiz-adv-x="981" d="M109 363v571h118v-569q0 -130 68 -204t195 -74t196 74t69 204v569h117v-570q0 -178 -98 -279.5t-284 -101.5q-185 0 -283 102t-98 278zM281 1082q0 27 19.5 46t46.5 19q26 0 45.5 -19t19.5 -46q0 -26 -19.5 -45t-45.5 -19q-27 0 -46.5 19t-19.5 45zM571 1082 q0 27 19.5 46t45.5 19q27 0 46 -19t19 -46q0 -26 -19 -45t-46 -19q-26 0 -45.5 19t-19.5 45z" />
<glyph unicode="&#xdd;" horiz-adv-x="876" d="M13 934h135l290 -434l290 434h136l-367 -539v-395h-116v395zM351 1019l208 202h109l-237 -202h-80z" />
<glyph unicode="&#xde;" horiz-adv-x="821" d="M109 0v934h116v-167h259q136 0 214.5 -81.5t78.5 -201.5q0 -119 -79 -199.5t-214 -80.5h-259v-204h-116zM225 308h245q83 0 135 48.5t52 127.5t-52 129.5t-135 50.5h-245v-356z" />
<glyph unicode="&#xdf;" horiz-adv-x="835" d="M106 0v699q0 106 73 177.5t193 71.5q101 0 173 -49t72 -128q0 -42 -21.5 -75t-52.5 -54t-62 -40.5t-52.5 -45t-21.5 -56.5q0 -26 17.5 -44.5t45.5 -28.5t64 -20t74 -18.5t74 -24t64 -36t45.5 -56.5t17.5 -83q0 -87 -67.5 -146.5t-192.5 -59.5q-92 0 -150 28t-111 81 l54 73q31 -42 85.5 -68.5t121.5 -26.5q77 0 117.5 33.5t40.5 82.5q0 38 -30 62.5t-74.5 36t-96.5 27t-96.5 33.5t-74.5 57.5t-30 97.5q0 42 21 75.5t51.5 55.5t60.5 41t51 41t21 47q0 44 -42.5 69t-96.5 25q-68 0 -114 -42t-46 -113v-699h-105z" />
<glyph unicode="&#xe0;" horiz-adv-x="739" d="M69 207q0 107 70 165t165 58q143 0 224 -91v122q0 66 -47.5 103.5t-123.5 37.5q-122 0 -207 -94l-49 73q108 112 270 112q117 0 189.5 -56t72.5 -172v-465h-105v77q-83 -94 -224 -94q-92 0 -163.5 60t-71.5 164zM148 980h110l207 -202h-80zM175 207q0 -65 47 -106.5 t121 -41.5q123 0 185 84v129q-30 40 -79 61t-106 21q-74 0 -121 -41.5t-47 -105.5z" />
<glyph unicode="&#xe1;" horiz-adv-x="739" d="M69 207q0 107 70 165t165 58q143 0 224 -91v122q0 66 -47.5 103.5t-123.5 37.5q-122 0 -207 -94l-49 73q108 112 270 112q117 0 189.5 -56t72.5 -172v-465h-105v77q-83 -94 -224 -94q-92 0 -163.5 60t-71.5 164zM175 207q0 -65 47 -106.5t121 -41.5q123 0 185 84v129 q-30 40 -79 61t-106 21q-74 0 -121 -41.5t-47 -105.5zM281 778l208 202h109l-237 -202h-80z" />
<glyph unicode="&#xe2;" horiz-adv-x="739" d="M69 207q0 107 70 165t165 58q143 0 224 -91v122q0 66 -47.5 103.5t-123.5 37.5q-122 0 -207 -94l-49 73q108 112 270 112q117 0 189.5 -56t72.5 -172v-465h-105v77q-83 -94 -224 -94q-92 0 -163.5 60t-71.5 164zM175 207q0 -65 47 -106.5t121 -41.5q123 0 185 84v129 q-30 40 -79 61t-106 21q-74 0 -121 -41.5t-47 -105.5zM190 778l133 202h101l137 -202h-71l-116 149l-112 -149h-72z" />
<glyph unicode="&#xe3;" horiz-adv-x="739" d="M69 207q0 107 70 165t165 58q143 0 224 -91v122q0 66 -47.5 103.5t-123.5 37.5q-122 0 -207 -94l-49 73q108 112 270 112q117 0 189.5 -56t72.5 -172v-465h-105v77q-83 -94 -224 -94q-92 0 -163.5 60t-71.5 164zM153 784q0 84 35.5 136t99.5 52q34 0 60 -20t39.5 -44.5 t32.5 -44.5t41 -20q30 0 48.5 30t18.5 90h63q0 -84 -36 -135.5t-100 -51.5q-34 0 -60 20t-39 44t-32 44t-41 20q-30 0 -48.5 -30t-18.5 -90h-63zM175 207q0 -65 47 -106.5t121 -41.5q123 0 185 84v129q-30 40 -79 61t-106 21q-74 0 -121 -41.5t-47 -105.5z" />
<glyph unicode="&#xe4;" horiz-adv-x="739" d="M69 207q0 107 70 165t165 58q143 0 224 -91v122q0 66 -47.5 103.5t-123.5 37.5q-122 0 -207 -94l-49 73q108 112 270 112q117 0 189.5 -56t72.5 -172v-465h-105v77q-83 -94 -224 -94q-92 0 -163.5 60t-71.5 164zM160 846q0 27 19 45.5t46 18.5t46 -18.5t19 -45.5 q0 -26 -19.5 -45.5t-45.5 -19.5q-27 0 -46 19.5t-19 45.5zM175 207q0 -65 47 -106.5t121 -41.5q123 0 185 84v129q-30 40 -79 61t-106 21q-74 0 -121 -41.5t-47 -105.5zM449 846q0 27 19 45.5t46 18.5t46.5 -18.5t19.5 -45.5q0 -26 -19.5 -45.5t-46.5 -19.5 q-26 0 -45.5 19.5t-19.5 45.5z" />
<glyph unicode="&#xe5;" horiz-adv-x="739" d="M69 207q0 107 70 165t165 58q143 0 224 -91v122q0 66 -47.5 103.5t-123.5 37.5q-122 0 -207 -94l-49 73q108 112 270 112q117 0 189.5 -56t72.5 -172v-465h-105v77q-83 -94 -224 -94q-92 0 -163.5 60t-71.5 164zM175 207q0 -65 47 -106.5t121 -41.5q123 0 185 84v129 q-30 40 -79 61t-106 21q-74 0 -121 -41.5t-47 -105.5zM234 904q0 57 40.5 98t97.5 41t96.5 -41t39.5 -98t-39.5 -97.5t-96.5 -40.5t-97.5 40.5t-40.5 97.5zM290 904q0 -34 24 -58t58 -24t58 24t24 58t-24 58.5t-58 24.5t-58 -24.5t-24 -58.5z" />
<glyph unicode="&#xe6;" horiz-adv-x="1244" d="M69 207q0 105 68.5 164t166.5 59q143 0 224 -90v121q0 66 -47.5 103.5t-123.5 37.5q-122 0 -207 -94l-49 73q108 112 270 112q95 0 154.5 -37.5t75.5 -110.5q38 66 103 107t156 41q146 0 233 -103t87 -260v-26h-546q6 -99 71 -165t171 -66q127 0 210 85l51 -70 q-108 -105 -269 -105q-180 0 -280 140q-100 -140 -279 -140q-96 0 -168 60t-72 164zM175 207q0 -65 47 -106.5t121 -41.5q141 0 206 119q-21 53 -21 91q-30 41 -79.5 63t-105.5 22q-74 0 -121 -41.5t-47 -105.5zM633 382h444q-1 85 -59 154.5t-164 69.5q-100 0 -158 -68.5 t-63 -155.5z" />
<glyph unicode="&#xe7;" horiz-adv-x="694" d="M66 339q0 152 94 253t243 101q156 0 248 -118l-70 -63q-63 87 -172 87q-106 0 -170 -73t-64 -187t64 -188t170 -74t172 88l70 -64q-81 -107 -221 -116l-23 -59q19 15 52 15q40 0 66.5 -26t26.5 -68q0 -51 -42 -81.5t-104 -30.5q-88 0 -141 42l26 54q51 -41 112 -41 q36 0 61 16t25 43q0 49 -52 49q-32 0 -53 -24l-47 27l31 85q-135 11 -218.5 110.5t-83.5 242.5z" />
<glyph unicode="&#xe8;" horiz-adv-x="788" d="M66 339q0 149 95 251.5t238 102.5q149 0 237 -103t88 -260v-26h-546q6 -100 71 -167t171 -67q125 0 210 87l50 -69q-108 -105 -268 -105q-152 0 -249 99t-97 257zM176 382h444q-1 85 -58.5 154.5t-163.5 69.5q-100 0 -158.5 -68.5t-63.5 -155.5zM176 980h110l207 -202 h-80z" />
<glyph unicode="&#xe9;" horiz-adv-x="788" d="M66 339q0 149 95 251.5t238 102.5q149 0 237 -103t88 -260v-26h-546q6 -100 71 -167t171 -67q125 0 210 87l50 -69q-108 -105 -268 -105q-152 0 -249 99t-97 257zM176 382h444q-1 85 -58.5 154.5t-163.5 69.5q-100 0 -158.5 -68.5t-63.5 -155.5zM308 778l207 202h109 l-236 -202h-80z" />
<glyph unicode="&#xea;" horiz-adv-x="788" d="M66 339q0 149 95 251.5t238 102.5q149 0 237 -103t88 -260v-26h-546q6 -100 71 -167t171 -67q125 0 210 87l50 -69q-108 -105 -268 -105q-152 0 -249 99t-97 257zM176 382h444q-1 85 -58.5 154.5t-163.5 69.5q-100 0 -158.5 -68.5t-63.5 -155.5zM216 778l133 202h100 l138 -202h-72l-116 149l-112 -149h-71z" />
<glyph unicode="&#xeb;" horiz-adv-x="788" d="M66 339q0 149 95 251.5t238 102.5q149 0 237 -103t88 -260v-26h-546q6 -100 71 -167t171 -67q125 0 210 87l50 -69q-108 -105 -268 -105q-152 0 -249 99t-97 257zM176 382h444q-1 85 -58.5 154.5t-163.5 69.5q-100 0 -158.5 -68.5t-63.5 -155.5zM190 846q0 27 19.5 45.5 t46.5 18.5t46 -18.5t19 -45.5q0 -26 -19.5 -45.5t-45.5 -19.5q-27 0 -46.5 19.5t-19.5 45.5zM480 846q0 27 19 45.5t46 18.5t46 -18.5t19 -45.5q0 -26 -19 -45.5t-46 -19.5q-26 0 -45.5 19.5t-19.5 45.5z" />
<glyph unicode="&#xec;" horiz-adv-x="315" d="M-67 980h109l207 -202h-80zM105 0v676h105v-676h-105z" />
<glyph unicode="&#xed;" horiz-adv-x="315" d="M66 778l207 202h109l-236 -202h-80zM105 0v676h105v-676h-105z" />
<glyph unicode="&#xee;" horiz-adv-x="315" d="M-27 778l133 202h101l137 -202h-71l-116 149l-112 -149h-72zM105 0v676h105v-676h-105z" />
<glyph unicode="&#xef;" horiz-adv-x="315" d="M-52 846q0 27 19.5 45.5t46.5 18.5q26 0 45 -18.5t19 -45.5q0 -26 -19 -45.5t-45 -19.5q-27 0 -46.5 19.5t-19.5 45.5zM105 0v676h105v-676h-105zM238 846q0 27 19 45.5t45 18.5q27 0 46.5 -18.5t19.5 -45.5q0 -26 -19.5 -45.5t-46.5 -19.5q-26 0 -45 19.5t-19 45.5z" />
<glyph unicode="&#xf0;" d="M66 328q0 148 86.5 245.5t221.5 97.5q136 0 221 -124q-71 126 -224 238l-200 -89l-25 59l165 72q-12 7 -33 21t-38.5 25.5t-33.5 21.5l57 86q100 -62 157 -106l151 67l24 -57l-120 -53q260 -222 260 -486q0 -159 -91.5 -261t-243.5 -102q-149 0 -241.5 98t-92.5 247z M176 328q0 -105 60 -178t164 -73t164 73t60 178q0 104 -60 176.5t-164 72.5t-164 -72.5t-60 -176.5z" />
<glyph unicode="&#xf1;" horiz-adv-x="772" d="M109 0v676h105v-98q40 47 105 81t137 34q215 0 215 -218v-475h-104v442q0 85 -40 121t-113 36q-59 0 -113 -30.5t-87 -74.5v-494h-105zM168 784q0 84 36 136t100 52q34 0 60 -20t39 -44.5t32 -44.5t41 -20q30 0 48.5 30t18.5 90h63q0 -84 -36 -135.5t-100 -51.5 q-34 0 -60 20t-39 44t-32 44t-41 20q-30 0 -48.5 -30t-18.5 -90h-63z" />
<glyph unicode="&#xf2;" d="M66 339q0 151 91.5 252.5t242.5 101.5t243 -101.5t92 -252.5t-92 -253.5t-243 -102.5t-242.5 102.5t-91.5 253.5zM176 339q0 -110 60 -186t164 -76t164 76t60 186q0 108 -60 184t-164 76t-164 -76t-60 -184zM176 980h110l207 -202h-80z" />
<glyph unicode="&#xf3;" d="M66 339q0 151 91.5 252.5t242.5 101.5t243 -101.5t92 -252.5t-92 -253.5t-243 -102.5t-242.5 102.5t-91.5 253.5zM176 339q0 -110 60 -186t164 -76t164 76t60 186q0 108 -60 184t-164 76t-164 -76t-60 -184zM308 778l207 202h109l-236 -202h-80z" />
<glyph unicode="&#xf4;" d="M66 339q0 151 91.5 252.5t242.5 101.5t243 -101.5t92 -252.5t-92 -253.5t-243 -102.5t-242.5 102.5t-91.5 253.5zM176 339q0 -110 60 -186t164 -76t164 76t60 186q0 108 -60 184t-164 76t-164 -76t-60 -184zM217 778l133 202h101l137 -202h-71l-117 149l-112 -149h-71z " />
<glyph unicode="&#xf5;" d="M66 339q0 151 91.5 252.5t242.5 101.5t243 -101.5t92 -252.5t-92 -253.5t-243 -102.5t-242.5 102.5t-91.5 253.5zM176 339q0 -110 60 -186t164 -76t164 76t60 186q0 108 -60 184t-164 76t-164 -76t-60 -184zM182 784q0 84 36 136t100 52q34 0 60 -20t39 -44.5t32 -44.5 t41 -20q30 0 48.5 30t18.5 90h63q0 -84 -36 -135.5t-100 -51.5q-34 0 -60 20t-39 44t-32 44t-41 20q-30 0 -48.5 -30t-18.5 -90h-63z" />
<glyph unicode="&#xf6;" d="M66 339q0 151 91.5 252.5t242.5 101.5t243 -101.5t92 -252.5t-92 -253.5t-243 -102.5t-242.5 102.5t-91.5 253.5zM176 339q0 -110 60 -186t164 -76t164 76t60 186q0 108 -60 184t-164 76t-164 -76t-60 -184zM190 846q0 27 19.5 45.5t46.5 18.5t46 -18.5t19 -45.5 q0 -26 -19.5 -45.5t-45.5 -19.5q-27 0 -46.5 19.5t-19.5 45.5zM480 846q0 27 19 45.5t46 18.5t46 -18.5t19 -45.5q0 -26 -19 -45.5t-46 -19.5q-26 0 -45.5 19.5t-19.5 45.5z" />
<glyph unicode="&#xf7;" horiz-adv-x="715" d="M41 435v73h634v-73h-634zM294 202q0 26 19 45t45 19t45.5 -19t19.5 -45t-19.5 -45.5t-45.5 -19.5t-45 19.5t-19 45.5zM294 738q0 26 19 44.5t45 18.5t45.5 -18.5t19.5 -44.5q0 -27 -19.5 -46.5t-45.5 -19.5t-45 19.5t-19 46.5z" />
<glyph unicode="&#xf8;" d="M66 339q0 151 91.5 252.5t242.5 101.5q110 0 192 -57l32 40h77l-63 -80q97 -100 97 -257q0 -151 -92 -253.5t-243 -102.5q-117 0 -198 63l-37 -46h-75l67 85q-91 99 -91 254zM176 339q0 -101 48 -170l305 388q-53 42 -129 42q-104 0 -164 -76t-60 -184zM263 125 q56 -48 137 -48q104 0 164 76t60 186q0 103 -53 173z" />
<glyph unicode="&#xf9;" horiz-adv-x="771" d="M105 199v477h105v-445q0 -85 39.5 -119.5t113.5 -34.5q58 0 112.5 29.5t85.5 72.5v497h105v-676h-105v95q-43 -48 -106 -80t-134 -32q-216 0 -216 216zM165 980h109l208 -202h-80z" />
<glyph unicode="&#xfa;" horiz-adv-x="771" d="M105 199v477h105v-445q0 -85 39.5 -119.5t113.5 -34.5q58 0 112.5 29.5t85.5 72.5v497h105v-676h-105v95q-43 -48 -106 -80t-134 -32q-216 0 -216 216zM295 778l208 202h109l-237 -202h-80z" />
<glyph unicode="&#xfb;" horiz-adv-x="771" d="M105 199v477h105v-445q0 -85 39.5 -119.5t113.5 -34.5q58 0 112.5 29.5t85.5 72.5v497h105v-676h-105v95q-43 -48 -106 -80t-134 -32q-216 0 -216 216zM202 778l133 202h100l138 -202h-72l-116 149l-112 -149h-71z" />
<glyph unicode="&#xfc;" horiz-adv-x="771" d="M105 199v477h105v-445q0 -85 39.5 -119.5t113.5 -34.5q58 0 112.5 29.5t85.5 72.5v497h105v-676h-105v95q-43 -48 -106 -80t-134 -32q-216 0 -216 216zM181 846q0 27 19 45.5t46 18.5t46 -18.5t19 -45.5q0 -26 -19.5 -45.5t-45.5 -19.5q-27 0 -46 19.5t-19 45.5zM470 846 q0 27 19 45.5t46 18.5t46.5 -18.5t19.5 -45.5q0 -26 -19.5 -45.5t-46.5 -19.5q-26 0 -45.5 19.5t-19.5 45.5z" />
<glyph unicode="&#xfd;" horiz-adv-x="686" d="M4 676h115l224 -554l225 554h114l-339 -813q-57 -135 -199 -137q-48 0 -75 9l15 96q26 -12 57 -12q36 0 60 16t41 56l45 102zM252 778l207 202h109l-236 -202h-80z" />
<glyph unicode="&#xfe;" d="M105 -258v1192h105v-359q38 53 98.5 85.5t129.5 32.5q135 0 218 -95.5t83 -258.5q0 -162 -83 -259t-218 -97q-138 0 -228 119v-360h-105zM210 186q28 -46 84.5 -77.5t117.5 -31.5q100 0 158.5 73.5t58.5 188.5t-58.5 187.5t-158.5 72.5q-61 0 -117.5 -31.5t-84.5 -76.5 v-305z" />
<glyph unicode="&#xff;" horiz-adv-x="686" d="M4 676h115l224 -554l225 554h114l-339 -813q-57 -135 -199 -137q-48 0 -75 9l15 96q26 -12 57 -12q36 0 60 16t41 56l45 102zM133 846q0 27 19.5 45.5t46.5 18.5q26 0 45 -18.5t19 -45.5q0 -26 -19 -45.5t-45 -19.5q-27 0 -46.5 19.5t-19.5 45.5zM423 846q0 27 19 45.5 t45 18.5q27 0 46.5 -18.5t19.5 -45.5q0 -26 -19.5 -45.5t-46.5 -19.5q-26 0 -45 19.5t-19 45.5z" />
<glyph unicode="&#x102;" horiz-adv-x="921" d="M13 0l376 934h144l376 -934h-133l-83 209h-465l-82 -209h-133zM214 1134l53 45q70 -101 194 -101q122 0 194 101l51 -45q-43 -58 -106.5 -90.5t-138.5 -32.5q-74 0 -139 33t-108 90zM263 311h396l-198 504z" />
<glyph unicode="&#x103;" horiz-adv-x="739" d="M69 207q0 107 70 165t165 58q143 0 224 -91v122q0 66 -47.5 103.5t-123.5 37.5q-122 0 -207 -94l-49 73q108 112 270 112q117 0 189.5 -56t72.5 -172v-465h-105v77q-83 -94 -224 -94q-92 0 -163.5 60t-71.5 164zM122 911l53 45q70 -101 193 -101t195 101l50 -45 q-43 -58 -106.5 -90.5t-138.5 -32.5q-74 0 -138.5 32.5t-107.5 90.5zM175 207q0 -65 47 -106.5t121 -41.5q123 0 185 84v129q-30 40 -79 61t-106 21q-74 0 -121 -41.5t-47 -105.5z" />
<glyph unicode="&#x11e;" horiz-adv-x="998" d="M71 466q0 142 65 253t174 170.5t242 59.5q223 0 362 -173l-92 -59q-46 59 -117 94t-153 35q-154 0 -257 -107t-103 -273q0 -165 103 -272t257 -107q77 0 144 30t108 71v189h-322v103h436v-336q-144 -162 -366 -162q-133 0 -242 59.5t-174 171t-65 253.5zM309 1134l54 45 q70 -101 193 -101q122 0 194 101l51 -45q-43 -58 -106.5 -90.5t-138.5 -32.5q-74 0 -139 33t-108 90z" />
<glyph unicode="&#x11f;" horiz-adv-x="805" d="M66 342q0 161 83 256t218 95q67 0 126.5 -31.5t101.5 -87.5v102h105v-666q0 -77 -26.5 -134t-73.5 -88.5t-102.5 -46.5t-120.5 -15q-89 0 -152 22t-121 80l53 75q41 -49 93.5 -70t126.5 -21q93 0 155.5 49t62.5 149v102q-39 -54 -99 -87t-129 -33q-134 0 -217.5 94.5 t-83.5 255.5zM154 911l53 45q70 -101 193 -101t195 101l50 -45q-43 -58 -106.5 -90.5t-138.5 -32.5q-74 0 -138.5 32.5t-107.5 90.5zM175 342q0 -113 58.5 -185t159.5 -72q60 0 116 32t86 78v296q-30 45 -86 76.5t-116 31.5q-101 0 -159.5 -71t-58.5 -186z" />
<glyph unicode="&#x130;" horiz-adv-x="334" d="M102 1084q0 27 19.5 46t46.5 19t46.5 -19t19.5 -46t-19.5 -46.5t-46.5 -19.5q-26 0 -46 19.5t-20 46.5zM109 0v934h116v-934h-116z" />
<glyph unicode="&#x131;" horiz-adv-x="315" d="M105 0v676h105v-676h-105z" />
<glyph unicode="&#x152;" horiz-adv-x="1547" d="M71 466q0 209 126 345.5t328 136.5q103 0 193.5 -47.5t141.5 -136.5v170h611v-104h-495v-301h486v-103h-486v-322h495v-104h-611v169q-51 -89 -141.5 -137.5t-193.5 -48.5q-202 0 -328 137t-126 346zM192 466q0 -166 94.5 -272.5t252.5 -106.5q110 0 195 58.5t126 168.5 v306q-41 110 -126 167t-195 57q-158 0 -252.5 -106t-94.5 -272z" />
<glyph unicode="&#x153;" horiz-adv-x="1346" d="M66 339q0 151 91.5 252.5t242.5 101.5q48 0 90.5 -13.5t72 -33.5t54 -47.5t38.5 -51t25 -47.5q13 32 34.5 62t55 61.5t82.5 50.5t106 19q149 0 236.5 -103t87.5 -260v-26h-546q6 -99 72 -166.5t171 -67.5q125 0 210 87l50 -69q-108 -105 -269 -105q-62 0 -113 18.5 t-85.5 49.5t-56 61t-36.5 64q-89 -193 -279 -193q-151 0 -242.5 102.5t-91.5 253.5zM176 339q0 -111 61 -187t163 -76t163 76t61 187q0 110 -61 185t-163 75t-163 -75t-61 -185zM735 382h445q-3 86 -60 155t-162 69q-101 0 -159.5 -68.5t-63.5 -155.5z" />
<glyph unicode="&#x15e;" horiz-adv-x="820" d="M53 132l70 89q50 -58 125.5 -96t167.5 -38q114 0 167 48.5t53 113.5q0 49 -30.5 82.5t-79.5 52.5t-107.5 34t-117.5 34t-108 45.5t-79.5 75t-30.5 116.5q0 115 91 187.5t231 72.5q207 0 330 -131l-70 -86q-101 112 -270 112q-84 0 -138 -41t-54 -107q0 -42 30.5 -71.5 t79.5 -46.5t107.5 -32t117.5 -35.5t108 -49.5t79.5 -80.5t30.5 -122.5q0 -52 -18 -98t-55.5 -86t-103 -64t-151.5 -27l-23 -60q19 15 51 15q40 0 66.5 -25.5t26.5 -67.5q0 -51 -42 -81.5t-104 -30.5q-88 0 -141 42l26 53q51 -41 112 -41q36 0 61 16t25 43q0 49 -52 49 q-32 0 -53 -24l-46 27l32 87q-196 16 -314 147z" />
<glyph unicode="&#x15f;" horiz-adv-x="651" d="M48 90l53 75q36 -41 96 -68.5t126 -27.5q76 0 118.5 32t42.5 84q0 38 -31 63t-77.5 35.5t-100.5 25.5t-100.5 32.5t-77.5 57.5t-31 99q0 83 67 139t183 56q157 0 251 -98l-49 -73q-32 38 -85 62t-117 24q-68 0 -108.5 -30.5t-40.5 -76.5q0 -30 23 -49.5t60 -31 t81.5 -21.5t89 -24t81.5 -35t60 -60t23 -92q0 -84 -63 -141t-178 -62l-23 -62q19 15 51 15q40 0 66.5 -25.5t26.5 -67.5q0 -51 -42 -81.5t-104 -30.5q-88 0 -141 42l26 53q51 -41 112 -41q36 0 61 16t25 43q0 49 -52 49q-32 0 -53 -24l-46 27l32 87q-145 11 -235 105z" />
<glyph unicode="&#x162;" horiz-adv-x="798" d="M45 830v104h708v-104h-297v-830h-116v830h-295zM335 -344q31 21 53.5 55t25.5 65h-2q-3 0 -6.5 -0.5t-6.5 -0.5q-26 0 -42.5 17t-16.5 44q0 26 19 45.5t46 19.5q31 0 52.5 -25.5t21.5 -68.5q0 -55 -28 -105.5t-72 -82.5z" />
<glyph unicode="&#x21a;" horiz-adv-x="798" d="M45 830v104h708v-104h-297v-830h-116v830h-295zM335 -344q31 21 53.5 55t25.5 65h-2q-3 0 -6.5 -0.5t-6.5 -0.5q-26 0 -42.5 17t-16.5 44q0 26 19 45.5t46 19.5q31 0 52.5 -25.5t21.5 -68.5q0 -55 -28 -105.5t-72 -82.5z" />
<glyph unicode="&#x163;" horiz-adv-x="411" d="M14 584v92h112v185h106v-185h138v-92h-138v-420q0 -39 17.5 -63t50.5 -24q44 0 71 29l31 -79q-48 -44 -125 -44q-75 0 -113 40.5t-38 117.5v443h-112zM141 -344q31 21 54 55.5t26 64.5h-3q-2 0 -5.5 -0.5t-6.5 -0.5q-26 0 -42.5 17t-16.5 44t18.5 46t45.5 19 q31 0 53 -25.5t22 -68.5q0 -55 -28 -105.5t-72 -82.5z" />
<glyph unicode="&#x21b;" horiz-adv-x="411" d="M14 584v92h112v185h106v-185h138v-92h-138v-420q0 -39 17.5 -63t50.5 -24q44 0 71 29l31 -79q-48 -44 -125 -44q-75 0 -113 40.5t-38 117.5v443h-112zM141 -344q31 21 54 55.5t26 64.5h-3q-2 0 -5.5 -0.5t-6.5 -0.5q-26 0 -42.5 17t-16.5 44t18.5 46t45.5 19 q31 0 53 -25.5t22 -68.5q0 -55 -28 -105.5t-72 -82.5z" />
<glyph unicode="&#x178;" horiz-adv-x="876" d="M13 934h135l290 -434l290 434h136l-367 -539v-395h-116v395zM232 1082q0 27 19.5 46t46.5 19q26 0 45.5 -19t19.5 -46q0 -26 -19.5 -45t-45.5 -19q-27 0 -46.5 19t-19.5 45zM522 1082q0 27 19.5 46t45.5 19q27 0 46 -19t19 -46q0 -26 -19 -45t-46 -19q-26 0 -45.5 19 t-19.5 45z" />
<glyph unicode="&#x192;" horiz-adv-x="604" d="M35 -225l129 581h-95v95h114l65 285q21 97 87 154.5t156 57.5q85 0 132 -51l-52 -85q-25 32 -68 32q-52 0 -90.5 -34.5t-51.5 -94.5l-59 -264h195v-95h-214l-130 -581h-118z" />
<glyph unicode="&#x218;" horiz-adv-x="830" d="M60 132l70 89q50 -58 125.5 -96t167.5 -38q114 0 167 48.5t53 113.5q0 49 -30.5 82.5t-79.5 52.5t-107.5 34t-117.5 34t-108 45.5t-79.5 75t-30.5 116.5q0 115 91 187.5t231 72.5q207 0 330 -131l-70 -86q-101 112 -270 112q-84 0 -138 -41t-54 -107q0 -42 30.5 -71.5 t79.5 -46.5t107.5 -32t117.5 -35.5t108 -49.5t79.5 -80.5t30.5 -122.5q0 -53 -19 -100t-58 -87.5t-107.5 -64t-159.5 -23.5q-227 0 -359 149zM346 -344q31 21 54 55.5t26 64.5h-3q-3 0 -6.5 -0.5t-6.5 -0.5q-26 0 -42.5 17t-16.5 44q0 26 19 45.5t46 19.5q31 0 52.5 -25.5 t21.5 -68.5q0 -55 -28 -105.5t-71 -82.5z" />
<glyph unicode="&#x219;" horiz-adv-x="655" d="M48 90l53 75q36 -41 96 -68.5t126 -27.5q76 0 118.5 32t42.5 84q0 38 -31 63t-77.5 35.5t-100.5 25.5t-100.5 32.5t-77.5 57.5t-31 99q0 83 67 139t183 56q157 0 251 -98l-49 -73q-32 38 -85 62t-117 24q-68 0 -108.5 -30.5t-40.5 -76.5q0 -30 23 -49.5t60 -31 t81.5 -21.5t89 -24t81.5 -35t60 -60t23 -92q0 -89 -69 -147t-195 -58q-169 0 -273 107zM263 -344q31 21 54 55.5t26 64.5h-3q-2 0 -5.5 -0.5t-6.5 -0.5q-26 0 -42.5 17t-16.5 44t18.5 46t45.5 19q31 0 52.5 -25.5t21.5 -68.5q0 -55 -28 -105.5t-71 -82.5z" />
<glyph unicode="&#x2c6;" horiz-adv-x="371" d="M0 778l133 202h101l137 -202h-71l-117 149l-112 -149h-71z" />
<glyph unicode="&#x2c7;" horiz-adv-x="371" d="M0 980h71l117 -148l112 148h71l-133 -202h-101z" />
<glyph unicode="&#x2d8;" horiz-adv-x="491" d="M0 911l53 45q70 -101 193 -101t195 101l50 -45q-43 -58 -106.5 -90.5t-138.5 -32.5q-74 0 -138.5 32.5t-107.5 90.5z" />
<glyph unicode="&#x2d9;" horiz-adv-x="156" d="M13 868q0 27 19.5 46.5t45.5 19.5q27 0 46.5 -19.5t19.5 -46.5t-19.5 -46.5t-46.5 -19.5q-26 0 -45.5 19.5t-19.5 46.5z" />
<glyph unicode="&#x2da;" horiz-adv-x="274" d="M0 914q0 57 41 98t98 41t96 -41t39 -98t-39 -97.5t-96 -40.5t-98 40.5t-41 97.5zM56 914q0 -34 24.5 -58t58.5 -24t57.5 24t23.5 58t-23.5 58.5t-57.5 24.5t-58.5 -24.5t-24.5 -58.5z" />
<glyph unicode="&#x2db;" horiz-adv-x="249" d="M0 -139q0 51 33.5 96.5t89.5 74.5l46 -32q-106 -54 -106 -136q0 -70 63 -70q51 0 71 59l52 -29q-37 -84 -123 -84q-54 0 -90 30.5t-36 90.5z" />
<glyph unicode="&#x2dc;" horiz-adv-x="438" d="M0 784q0 84 36 136t100 52q34 0 60 -20t39 -44.5t32 -44.5t41 -20q30 0 48.5 30t18.5 90h63q0 -84 -36 -135.5t-100 -51.5q-34 0 -60 20t-39 44t-32 44t-41 20q-30 0 -48.5 -30t-18.5 -90h-63z" />
<glyph unicode="&#x2dd;" horiz-adv-x="427" d="M0 778l132 202h96l-161 -202h-67zM199 778l131 202h97l-161 -202h-67z" />
<glyph unicode="&#x2000;" horiz-adv-x="623" />
<glyph unicode="&#x2001;" horiz-adv-x="1246" />
<glyph unicode="&#x2002;" horiz-adv-x="623" />
<glyph unicode="&#x2003;" horiz-adv-x="1246" />
<glyph unicode="&#x2004;" horiz-adv-x="415" />
<glyph unicode="&#x2005;" horiz-adv-x="311" />
<glyph unicode="&#x2006;" horiz-adv-x="207" />
<glyph unicode="&#x2007;" horiz-adv-x="207" />
<glyph unicode="&#x2008;" horiz-adv-x="155" />
<glyph unicode="&#x2009;" horiz-adv-x="249" />
<glyph unicode="&#x200a;" horiz-adv-x="69" />
<glyph unicode="&#x2010;" horiz-adv-x="420" d="M42 293v92h336v-92h-336z" />
<glyph unicode="&#x2011;" horiz-adv-x="420" d="M42 293v92h336v-92h-336z" />
<glyph unicode="&#x2012;" horiz-adv-x="420" d="M42 293v92h336v-92h-336z" />
<glyph unicode="&#x2013;" horiz-adv-x="830" d="M42 293v92h746v-92h-746z" />
<glyph unicode="&#x2014;" horiz-adv-x="1166" d="M42 293v92h1082v-92h-1082z" />
<glyph unicode="&#x2018;" horiz-adv-x="322" d="M67 738q0 62 31.5 118.5t80.5 91.5l53 -42q-34 -22 -60.5 -59t-30.5 -71q1 0 8.5 1t11.5 1q29 0 48 -20t19 -51q0 -32 -21.5 -54t-52.5 -22q-36 0 -61.5 28.5t-25.5 78.5z" />
<glyph unicode="&#x2019;" horiz-adv-x="322" d="M80 673q34 22 60.5 59.5t30.5 71.5q-9 -3 -20 -3q-29 0 -48 20t-19 51t21.5 53.5t52.5 22.5q38 0 63 -28.5t25 -78.5q0 -62 -31.5 -118.5t-81.5 -92.5z" />
<glyph unicode="&#x201a;" horiz-adv-x="322" d="M80 -134q34 22 60.5 59t30.5 71q-9 -3 -20 -3q-29 0 -48 20t-19 51t21.5 53.5t52.5 22.5q37 0 62.5 -28.5t25.5 -77.5q0 -62 -31.5 -119t-81.5 -93z" />
<glyph unicode="&#x201c;" horiz-adv-x="546" d="M76 738q0 62 31.5 118.5t81.5 91.5l52 -42q-34 -22 -60 -59t-30 -71h3q3 1 7.5 1.5t7.5 0.5q29 0 49 -20t20 -51t-22 -53.5t-54 -22.5q-36 0 -61 28.5t-25 78.5zM300 738q0 62 31.5 118.5t81.5 91.5l52 -42q-34 -22 -60 -59t-30 -71q1 0 8 1t10 1q29 0 49 -20t20 -51 t-22 -53.5t-54 -22.5q-36 0 -61 28.5t-25 78.5z" />
<glyph unicode="&#x201d;" horiz-adv-x="546" d="M80 673q34 22 60.5 59.5t30.5 71.5q-9 -3 -20 -3q-29 0 -48 20t-19 51t21.5 53.5t52.5 22.5q38 0 63 -28.5t25 -78.5q0 -62 -31.5 -118.5t-81.5 -92.5zM305 673q34 22 59.5 59.5t30.5 71.5q-3 -3 -18 -3q-29 0 -49 20t-20 51t22.5 53.5t53.5 22.5q36 0 61 -28.5t25 -78.5 q0 -62 -31.5 -118.5t-81.5 -92.5z" />
<glyph unicode="&#x201e;" horiz-adv-x="546" d="M80 -134q34 22 60.5 59t30.5 71q-9 -3 -20 -3q-29 0 -48 20t-19 51t21.5 53.5t52.5 22.5q37 0 62.5 -28.5t25.5 -77.5q0 -62 -31.5 -119t-81.5 -93zM305 -134q34 22 60 59t30 71q-3 -3 -18 -3q-29 0 -49 20t-20 51t22.5 53.5t53.5 22.5q36 0 61 -29t25 -77 q0 -62 -31.5 -119t-81.5 -93z" />
<glyph unicode="&#x2020;" horiz-adv-x="368" d="M32 743v61l125 -5l-7 149h67l-6 -149l125 5v-61l-125 6l6 -291h-67l7 291z" />
<glyph unicode="&#x2021;" horiz-adv-x="368" d="M32 396v60l123 -5v298l-123 -6v61l123 -5l-5 149h67l-6 -149l125 5v-61l-125 6v-298l125 5v-60l-125 4l6 -148h-67l5 148z" />
<glyph unicode="&#x2022;" horiz-adv-x="501" d="M101 339q0 62 44.5 106.5t106.5 44.5t106.5 -44.5t44.5 -106.5q0 -61 -44.5 -105.5t-106.5 -44.5t-106.5 44.5t-44.5 105.5z" />
<glyph unicode="&#x2026;" horiz-adv-x="967" d="M84 63q0 31 23 54t54 23t54 -23t23 -54t-23 -54t-54 -23t-54 23t-23 54zM406 63q0 31 23 54t54 23t54 -23t23 -54t-23 -54t-54 -23t-54 23t-23 54zM729 63q0 31 22.5 54t54.5 23q31 0 53.5 -22.5t22.5 -54.5q0 -31 -22.5 -54t-53.5 -23t-54 23t-23 54z" />
<glyph unicode="&#x202f;" horiz-adv-x="249" />
<glyph unicode="&#x2039;" horiz-adv-x="413" d="M42 340l224 248h105l-224 -248l224 -252h-105z" />
<glyph unicode="&#x203a;" horiz-adv-x="413" d="M42 88l224 252l-224 248h105l224 -248l-224 -252h-105z" />
<glyph unicode="&#x205f;" horiz-adv-x="311" />
<glyph unicode="&#x20ac;" horiz-adv-x="972" d="M43 332v73h62q-3 60 -3 61q0 2 3 65h-62v74h77q42 157 168 250.5t294 93.5q226 0 355 -185l-97 -54q-40 61 -110 98.5t-148 37.5q-119 0 -209.5 -65t-128.5 -176h422v-74h-439q-4 -28 -4 -65q0 -34 4 -61h439v-73h-422q37 -112 128 -178.5t210 -66.5q78 0 147.5 38 t110.5 98l98 -54q-134 -186 -356 -186q-169 0 -295.5 95t-167.5 254h-76z" />
<glyph unicode="&#x2122;" horiz-adv-x="635" d="M24 897v37h213v-37h-87v-271h-39v271h-87zM287 626v308h60l90 -224l89 224h61v-308h-40v255l-105 -255h-11l-105 255v-255h-39z" />
<glyph unicode="&#x25ca;" horiz-adv-x="525" d="M27 468l221 466h29l221 -466l-221 -468h-29zM77 468l186 -411l185 411l-186 408z" />
<glyph unicode="&#xe000;" horiz-adv-x="679" d="M0 0v679h679v-679h-679z" />
</font>
</defs>
</svg>
